# xmcd
#
# Track frame offsets:
#	150
#	12525
#	26825
#	39532
#	52683
#	65909
#	79581
#	95468
#	108870
#	122960
#	142910
#	154460
#
# Disc length: 2238 seconds
#
# Revision: 0
# Processed by: cddbd v1.5.2PL0 Copyright (c) Steve Scherf et al.
# Submitted via: audiograbber 1.83.01
#
DISCID=9e08bc0c
DTITLE=VARIOS - POR SIEMPRE BOLEROS Vol 7
DYEAR=2006
DGENRE=BOLERO
TTITLE0=ANTONIO MACHIN - ANGELITOS NEGROS
TTITLE1=LUCHO BARRIOS - POR QUE ME HACES SUFRIR
TTITLE2=LUCHO GATICA - CONTIGO APRENDÍ
TTITLE3=AMIGO DE QUE - ORLANDO CONTRERAS
TTITLE4=LOS PANCHOS - ME VOY PAL PUEBLO
TTITLE5=PEDRO VARGAS - ADIOS
TTITLE6=MONCHO - POR EL AMOR DE UNA MUJER
TTITLE7=ALBERTO BELTRAN - AUNQUE ME CUESTE LA VIDA
TTITLE8=LOS DIAMANTES DEL SOL - SI LLORO ES POR TU AMOR
TTITLE9=VICKY ESTEVEZ - CON LOS AÑOS QUE ME QUEDAN
TTITLE10=JOHNNY ALBINO - UNA COPA MAS
TTITLE11=TRIO FANTASIA - LUZ DE LUNA
EXTD=
EXTT0=
EXTT1=
EXTT2=
EXTT3=
EXTT4=
EXTT5=
EXTT6=
EXTT7=
EXTT8=
EXTT9=
EXTT10=
EXTT11=
PLAYORDER=
